<?xml version="1.0" encoding="UTF-8"?>
<svg id="Layer_2" data-name="Layer 2" xmlns="http://www.w3.org/2000/svg" viewBox="0 0 107.03 58.97">
  <defs>
    <style>
      .cls-1 {
        fill: #000;
        stroke-width: 0px;
      }
    </style>
  </defs>
  <g id="Calque_1" data-name="Calque 1">
    <path class="cls-1" d="M97.17,19.78c-1.9.55-4.57.73-6.26,0-1.68-.73-3.58-2.14-4.33-2.66h-.04c-.6-.78-1.29-1.71-2.11-2.69,1.81.65,3.57.64,1.57-.99,0,0-2.98-1.9-2.82-2.42,1.28-4.1,1.58-4.84,2.31-5.94.34-.52-2.73-4.28-6.03-4.86-3.3-.59-5.82.19-5.82.19l-.85,4.97c-1.08-1.17-2.41-1.58-3.48-.86-1.18-.68-2.6-1.2-4.58-1.36-6.16-.48-11.36,6.15-11.36,8.76s-31.24,0-37.16,10.17c-.32.55-.6,1.08-.86,1.6-.58-.42-1.18-1.18-1.82-3.15-.96-2.97,1.31-4.58,3.02-5.25.31.42.79.71,1.36.71.94,0,1.69-.74,1.69-1.64s-.76-1.64-1.69-1.64-1.7.74-1.7,1.64c0,.14.05.26.08.39-2.07.5-5.46,2.32-3.79,7.54.33,1.01.99,2.5,1.78,3.71-3.19,7.75-1.06,12.22-3.51,13.86-2.84,1.89-7.88,6.5-9,7.81-1.38,1.63-2.34,4.58-1.42,5.68,1.92,2.29,2.74,2.72,4.26,4.02,3.39,2.93,3.79,0,3.79,0,0,0,1.89-6.16,7.1-7.81,5.21-1.66,7.14-2.04,8.99-4.03,1.62-1.74,4.86,1.97,4.26,3.79-1.99,6.08-.55,6.39-.55,6.39,0,0,8.84.24,9.78,0,.95-.24-.23-3.28-1.42-4.6-1.19-1.32-.24-8.18-.24-8.18,0,0,6.18-2.65,10.18-3.08,11.52-1.24,4.01,10.2,4.97,8.76.27-.4-1.89,3.07-3.78,3.07s.47,5.21,2.13,6.87c1.65,1.65,3.31-2.13,3.31-2.13,0,0,5.21-2.36,6.15-5.44.88-2.84,2.13-5.85,1.58-6.49,1.14.59,6.25,2.86,8.6,4.61,2.84,2.11,5.21,6.37,5.21,7.08s5.92-1.42,6.39-2.37c.47-.94-4.03-4.49-5.45-6.62-1.42-2.14-7.81-8.04-8.28-10.17-.48-2.13-2.6-8.29.23-8.29.51,0,1.32.06,2.28.13.77-.78,1.19-1.66,1.47-2.64.32-1.11.47-2.36.75-3.71.47-2.24,1.42-3.74,1.76-4.22-.15-.23-.25-.49-.25-.78,0-.87.79-1.59,1.78-1.59s1.78.71,1.78,1.59-.8,1.59-1.78,1.59c-.45,0-.85-.16-1.16-.41l-.02.04c-.12.18-.29.46-.48.82-.38.72-.82,1.76-1.1,3.07-.28,1.32-.42,2.58-.76,3.75-.26.9-.65,1.76-1.31,2.54,2.54.16,5.81.25,7.46-.65.59-.32,1.85-1.28,3.25-2.51-.74.2-1.55.14-2.11-.7l.42-.04,2.79-.26.84-.08s-.67.59-1.52.94c3.52.36,10.32-.23,13.96-1.55,5.84-2.12,6.89-3.76,9.73-4.1,3.02-.36.52-1.63,1.63-3.11.8-1.07-9.07,2.72-9.81,2.94"/>
  </g>
</svg>