<?xml version="1.0" encoding="utf-8"?>
<!-- Generator: Adobe Illustrator 28.3.0, SVG Export Plug-In . SVG Version: 6.00 Build 0)  -->
<svg version="1.1" id="Layer_1" xmlns="http://www.w3.org/2000/svg" xmlns:xlink="http://www.w3.org/1999/xlink" x="0px" y="0px"
	 viewBox="0 0 107 59" style="enable-background:new 0 0 107 59;" xml:space="preserve">
<style type="text/css">
	.st0{fill:#010101;}
</style>
<g>
	<path class="st0" d="M97.2,19.8c-1.9,0.6-4.6,0.7-6.3,0c-1.7-0.7-3.6-2.1-4.3-2.7l0,0c-0.6-0.8-1.3-1.7-2.1-2.7
		c1.8,0.6,3.6,0.6,1.6-1c0,0-3-1.9-2.8-2.4c1.3-4.1,1.6-4.8,2.3-5.9c0.3-0.5-2.7-4.3-6-4.9c-3.3-0.6-5.8,0.2-5.8,0.2l-0.8,5
		c-1.1-1.2-2.4-1.6-3.5-0.9c-1.2-0.7-2.6-1.2-4.6-1.4c-6.2-0.5-11.4,6.2-11.4,8.8c0,2.6-31.2,0-37.2,10.2c-0.3,0.5-0.6,1.1-0.9,1.6
		c-0.6-0.4-1.2-1.2-1.8-3.2c-1-3,1.3-4.6,3-5.3c0.3,0.4,0.8,0.7,1.4,0.7c0.9,0,1.7-0.7,1.7-1.6c0-0.9-0.8-1.6-1.7-1.6
		s-1.7,0.7-1.7,1.6c0,0.1,0,0.3,0.1,0.4c-2.1,0.5-5.5,2.3-3.8,7.5c0.3,1,1,2.5,1.8,3.7c-3.2,7.8-1.1,12.2-3.5,13.9
		c-2.8,1.9-7.9,6.5-9,7.8c-1.4,1.6-2.3,4.6-1.4,5.7c1.9,2.3,2.7,2.7,4.3,4c3.4,2.9,3.8,0,3.8,0s1.9-6.2,7.1-7.8c5.2-1.7,7.1-2,9-4
		c1.6-1.7,4.9,2,4.3,3.8c-2,6.1-0.6,6.4-0.6,6.4s8.8,0.2,9.8,0c0.9-0.2-0.2-3.3-1.4-4.6c-1.2-1.3-0.2-8.2-0.2-8.2s6.2-2.6,10.2-3.1
		c11.5-1.2,4,10.2,5,8.8c0.3-0.4-1.9,3.1-3.8,3.1c-1.9,0,0.5,5.2,2.1,6.9c1.7,1.7,3.3-2.1,3.3-2.1s5.2-2.4,6.2-5.4
		c0.9-2.8,2.1-5.9,1.6-6.5c1.1,0.6,6.2,2.9,8.6,4.6c2.8,2.1,5.2,6.4,5.2,7.1c0,0.7,5.9-1.4,6.4-2.4c0.5-0.9-4-4.5-5.4-6.6
		c-1.4-2.1-7.8-8-8.3-10.2c-0.5-2.1-2.6-8.3,0.2-8.3c0.5,0,1.3,0.1,2.3,0.1c0.8-0.8,1.2-1.7,1.5-2.6c0.3-1.1,0.5-2.4,0.8-3.7
		c0.5-2.2,1.4-3.7,1.8-4.2c-0.2-0.2-0.3-0.5-0.3-0.8c0-0.9,0.8-1.6,1.8-1.6c1,0,1.8,0.7,1.8,1.6c0,0.9-0.8,1.6-1.8,1.6
		c-0.5,0-0.9-0.2-1.2-0.4l0,0c-0.1,0.2-0.3,0.5-0.5,0.8c-0.4,0.7-0.8,1.8-1.1,3.1c-0.3,1.3-0.4,2.6-0.8,3.8
		c-0.3,0.9-0.6,1.8-1.3,2.5c2.5,0.2,5.8,0.2,7.5-0.6c0.6-0.3,1.8-1.3,3.2-2.5c-0.7,0.2-1.5,0.1-2.1-0.7l0.4,0l2.8-0.3l0.8-0.1
		c0,0-0.7,0.6-1.5,0.9c3.5,0.4,10.3-0.2,14-1.6c5.8-2.1,6.9-3.8,9.7-4.1c3-0.4,0.5-1.6,1.6-3.1C107.8,15.8,97.9,19.6,97.2,19.8"/>
</g>
</svg>
